<svg xmlns="http://www.w3.org/2000/svg" width="74" height="74" viewBox="0 0 74 74">
    <g fill="none" fill-rule="evenodd" stroke="#DAA92C">
        <path stroke-width="1.65" d="M35.53 30.81c-.836.837-1.853 1.256-3.049 1.256-.627 0-1.249-.144-1.862-.427.284.614.426 1.234.426 1.862 0 1.196-.417 2.212-1.255 3.05-.838.838-1.855 1.256-3.052 1.256-1.194 0-2.211-.418-3.05-1.256-.837-.838-1.255-1.854-1.255-3.05 0-1.197.418-2.214 1.256-3.05.838-.837 1.855-1.256 3.05-1.256.628 0 1.248.142 1.862.425a4.38 4.38 0 0 1-.427-1.861c0-1.195.418-2.213 1.256-3.05.837-.838 1.855-1.255 3.051-1.255 1.196 0 2.213.417 3.05 1.255.838.837 1.255 1.855 1.255 3.05 0 1.196-.417 2.213-1.255 3.051zm15.442 13.322c.322.345.612.643.866.897.253.254.526.5.818.74.292.24.504.36.638.36.255 0 .749-.367 1.481-1.1.733-.733 1.099-1.226 1.099-1.48 0-.12-.213-.427-.638-.92a36.867 36.867 0 0 0-1.637-1.749 151.44 151.44 0 0 0-1.942-1.928c-.628-.615-1.24-1.209-1.838-1.784-.599-.575-.943-.909-1.033-.998a.707.707 0 0 0-.515-.224c-.254 0-.748.366-1.48 1.099-.734.732-1.1 1.226-1.1 1.48 0 .134.12.347.36.64.24.291.486.564.74.817.253.255.552.543.897.865.343.321.537.505.583.548l-2.154 2.154-7.962-7.961c1.96-2.633 2.938-5.362 2.938-8.188 0-2.437-.766-4.422-2.298-5.955-1.533-1.532-3.518-2.299-5.955-2.299-2.393 0-4.734.71-7.02 2.131a17.049 17.049 0 0 0-5.563 5.563c-1.421 2.287-2.131 4.627-2.131 7.02 0 2.437.767 4.422 2.3 5.955 1.533 1.532 3.517 2.298 5.953 2.298 2.828 0 5.557-.978 8.188-2.938l15.05 15.051c.418.418.926.628 1.524.628.629 0 1.234-.293 1.818-.876.583-.583.875-1.188.875-1.817 0-.598-.21-1.106-.628-1.526l-4.935-4.932 2.153-2.154c.044.044.228.24.548.583z"/>
        <path stroke-width="2.2" d="M72 37c0 19.33-15.67 35-35 35S2 56.33 2 37 17.67 2 37 2s35 15.67 35 35z"/>
    </g>
</svg>
