<svg xmlns="http://www.w3.org/2000/svg" width="38" height="38" viewBox="0 0 38 38">
    <g fill="none" fill-rule="evenodd" opacity=".8">
        <path fill="#414042" fill-opacity=".1" d="M0 .302h37.698V38H0z"/>
        <path fill="#3A648C" d="M13.981 7.654a.808.808 0 0 0-.586-.244.83.83 0 0 0-.588 1.418L23.13 19.15 12.807 29.474a.83.83 0 0 0 1.174 1.174l10.911-10.91a.833.833 0 0 0 0-1.175l-10.91-10.91z"/>
        <path stroke="#414042" stroke-width="2" d="M24.065 19.15L13.275 8.36l-.003-.002c.03.03.083.052.123.052a.194.194 0 0 0 .119-.05.169.169 0 0 0 0-.24l10.324 10.323.707.707L13.514 30.18a.17.17 0 1 0-.24-.24l10.791-10.79z"/>
    </g>
</svg>
