<svg xmlns="http://www.w3.org/2000/svg" width="38" height="38" viewBox="0 0 38 38">
    <g fill="none" fill-rule="evenodd" opacity=".8">
        <path fill="#414042" fill-opacity=".1" d="M38 37.698H.302V0H38z"/>
        <path fill="#3A648C" d="M24.019 30.346a.808.808 0 0 0 .586.244.83.83 0 0 0 .588-1.418L14.87 18.85 25.193 8.526a.83.83 0 0 0-1.174-1.174l-10.911 10.91a.833.833 0 0 0 0 1.175l10.91 10.91z"/>
        <path stroke="#414042" stroke-width="2" d="M13.935 18.85l10.79 10.79.003.002a.196.196 0 0 0-.123-.052.194.194 0 0 0-.119.05.169.169 0 0 0 0 .24L14.162 19.556l-.707-.707L24.486 7.82a.17.17 0 1 0 .24.24l-10.791 10.79z"/>
    </g>
</svg>
