<svg xmlns="http://www.w3.org/2000/svg" xmlns:xlink="http://www.w3.org/1999/xlink" width="38" height="38" viewBox="0 0 38 38">
    <defs>
        <path id="a" d="M2.106 23.523a.808.808 0 0 1-.586.244.83.83 0 0 1-.588-1.418l10.324-10.322L.932 1.703A.83.83 0 0 1 2.106.528L13.017 11.44a.833.833 0 0 1 0 1.175l-10.91 10.91z"/>
    </defs>
    <g fill="none" fill-rule="evenodd" opacity=".8">
        <path fill="#FEFEFE" d="M0 37.698h37.698V0H0z"/>
        <path fill="#3A648C" d="M13.981 30.346a.808.808 0 0 1-.586.244.83.83 0 0 1-.588-1.418L23.13 18.85 12.807 8.526a.83.83 0 0 1 1.174-1.174l10.911 10.91a.833.833 0 0 1 0 1.175l-10.91 10.91z"/>
        <g stroke="#414042" transform="translate(11.875 6.823)">
            <path fill="#414042" stroke-linejoin="square" stroke-width=".5" d="M1.929 23.347l10.91-10.91a.583.583 0 0 0 .001-.821L1.93.706a.58.58 0 0 0-.821.82l10.5 10.5-.176.178L1.109 22.525a.58.58 0 0 0 .82.822z"/>
            <use xlink:href="#a"/>
        </g>
    </g>
</svg>
