<svg xmlns="http://www.w3.org/2000/svg" xmlns:xlink="http://www.w3.org/1999/xlink" width="73" height="73" viewBox="0 0 73 73">
    <defs>
        <path id="a" d="M0 73h73V0H0z"/>
    </defs>
    <g fill="none" fill-rule="evenodd">
        <path fill="#DAA92C" d="M25.317 50.13a2.8 2.8 0 0 1-2.796-2.797 2.798 2.798 0 0 1 2.796-2.795 2.798 2.798 0 0 1 2.796 2.795 2.8 2.8 0 0 1-2.796 2.797m0-6.99a4.199 4.199 0 0 0-4.194 4.193 4.199 4.199 0 0 0 4.194 4.195 4.199 4.199 0 0 0 4.194-4.195 4.199 4.199 0 0 0-4.194-4.194"/>
        <path stroke="#DAA92C" stroke-width=".5" d="M25.317 50.13a2.8 2.8 0 0 1-2.796-2.797 2.798 2.798 0 0 1 2.796-2.795 2.798 2.798 0 0 1 2.796 2.795 2.8 2.8 0 0 1-2.796 2.797zm0-6.99a4.199 4.199 0 0 0-4.194 4.193 4.199 4.199 0 0 0 4.194 4.195 4.199 4.199 0 0 0 4.194-4.195 4.199 4.199 0 0 0-4.194-4.194z"/>
        <path fill="#DAA92C" d="M49.081 50.13a2.8 2.8 0 0 1-2.796-2.797 2.798 2.798 0 0 1 2.796-2.795 2.798 2.798 0 0 1 2.796 2.795 2.8 2.8 0 0 1-2.796 2.797m0-6.99a4.199 4.199 0 0 0-4.194 4.193 4.199 4.199 0 0 0 4.194 4.195 4.199 4.199 0 0 0 4.194-4.195 4.199 4.199 0 0 0-4.194-4.194"/>
        <path stroke="#DAA92C" stroke-width=".5" d="M49.081 50.13a2.8 2.8 0 0 1-2.796-2.797 2.798 2.798 0 0 1 2.796-2.795 2.798 2.798 0 0 1 2.796 2.795 2.8 2.8 0 0 1-2.796 2.797zm0-6.99a4.199 4.199 0 0 0-4.194 4.193 4.199 4.199 0 0 0 4.194 4.195 4.199 4.199 0 0 0 4.194-4.195 4.199 4.199 0 0 0-4.194-4.194z"/>
        <path fill="#DAA92C" d="M57.357 39.267l-6.29-9.785a.7.7 0 0 0-.588-.32H42.79a.7.7 0 0 0-.7.698v17.474a.7.7 0 0 0 .7.699h2.796v-1.398H43.49V30.559h6.607l5.973 9.292v6.784h-3.494v1.398h4.193a.698.698 0 0 0 .699-.7v-7.688a.687.687 0 0 0-.11-.378"/>
        <path stroke="#DAA92C" stroke-width=".5" d="M57.357 39.267l-6.29-9.785a.7.7 0 0 0-.588-.32H42.79a.7.7 0 0 0-.7.698v17.474a.7.7 0 0 0 .7.699h2.796v-1.398H43.49V30.559h6.607l5.973 9.292v6.784h-3.494v1.398h4.193a.698.698 0 0 0 .699-.7v-7.688a.687.687 0 0 0-.11-.378z"/>
        <path fill="#DAA92C" d="M46.286 38.247v-4.893h5.59v-1.397h-6.29a.7.7 0 0 0-.699.7v6.29a.7.7 0 0 0 .7.698H56.07v-1.398h-9.785z"/>
        <path stroke="#DAA92C" stroke-width=".5" d="M46.286 38.247v-4.893h5.59v-1.397h-6.29a.7.7 0 0 0-.699.7v6.29a.7.7 0 0 0 .7.698H56.07v-1.398h-9.785z"/>
        <path fill="#DAA92C" d="M42.79 24.268H16.23a.7.7 0 0 0-.698.7v22.366a.7.7 0 0 0 .699.7h5.592v-1.399H16.93V25.666H42.09v20.97H28.812v1.397H42.79a.698.698 0 0 0 .7-.699V24.967a.698.698 0 0 0-.7-.699"/>
        <path stroke="#DAA92C" stroke-width=".5" d="M42.79 24.268H16.23a.7.7 0 0 0-.698.7v22.366a.7.7 0 0 0 .699.7h5.592v-1.399H16.93V25.666H42.09v20.97H28.812v1.397H42.79a.698.698 0 0 0 .7-.699V24.967a.698.698 0 0 0-.7-.699z"/>
        <mask id="b" fill="#fff">
            <use xlink:href="#a"/>
        </mask>
        <path fill="#DAA92C" d="M16.23 45.237h4.193v-1.398H16.23z" mask="url(#b)"/>
        <path stroke="#DAA92C" stroke-width=".5" d="M16.23 45.237h4.193v-1.398H16.23z" mask="url(#b)"/>
        <path fill="#DAA92C" d="M30.21 45.237h11.882v-1.398H30.21z" mask="url(#b)"/>
        <path stroke="#DAA92C" stroke-width=".5" d="M30.21 45.237h11.882v-1.398H30.21z" mask="url(#b)"/>
        <path fill="#DAA92C" d="M53.974 45.237h2.796v-1.398h-2.796z" mask="url(#b)"/>
        <path stroke="#DAA92C" stroke-width=".5" d="M53.974 45.237h2.796v-1.398h-2.796z" mask="url(#b)"/>
        <path fill="#DAA92C" d="M18.327 28.462H42.79v-1.398H18.327z" mask="url(#b)"/>
        <path stroke="#DAA92C" stroke-width=".5" d="M18.327 28.462H42.79v-1.398H18.327z" mask="url(#b)"/>
        <path fill="#DAA92C" d="M24.618 48.033h1.398v-1.398h-1.398z" mask="url(#b)"/>
        <path stroke="#DAA92C" stroke-width=".5" d="M24.618 48.033h1.398v-1.398h-1.398z" mask="url(#b)"/>
        <path fill="#DAA92C" d="M48.382 48.033h1.398v-1.398h-1.398z" mask="url(#b)"/>
        <path stroke="#DAA92C" stroke-width=".5" d="M48.382 48.033h1.398v-1.398h-1.398z" mask="url(#b)"/>
        <path fill="#DAA92C" d="M18.327 22.871h9.786v-1.398h-9.786z" mask="url(#b)"/>
        <path stroke="#DAA92C" stroke-width=".5" d="M18.327 22.871h9.786v-1.398h-9.786z" mask="url(#b)"/>
        <path fill="#DAA92C" d="M15.531 22.871h1.398v-1.398h-1.398z" mask="url(#b)"/>
        <path stroke="#DAA92C" stroke-width=".5" d="M15.531 22.871h1.398v-1.398h-1.398z" mask="url(#b)"/>
        <path stroke="#DAA92C" stroke-width="2.2" d="M71.894 36.5c0 19.547-15.847 35.394-35.394 35.394-19.547 0-35.394-15.847-35.394-35.394 0-19.547 15.847-35.394 35.394-35.394 19.547 0 35.394 15.847 35.394 35.394z" mask="url(#b)"/>
    </g>
</svg>
