<svg xmlns="http://www.w3.org/2000/svg" width="24" height="23" viewBox="0 0 24 23">
    <g fill="#DAA92C" fill-rule="evenodd">
        <path d="M12.188 13.56c1.306 0 2.369-1.014 2.369-2.263a2.19 2.19 0 0 0-.446-1.318 2.407 2.407 0 0 0-1.923-.941c-.789 0-1.489.37-1.92.941a2.192 2.192 0 0 0-.448 1.318c0 1.249 1.063 2.262 2.368 2.262M17.361 8.53V6.353h-.297l-1.985.008.01 2.177z"/>
        <path d="M18.917 9.98v5.261c0 1.37-1.165 2.483-2.6 2.483H8.06c-1.433 0-2.6-1.114-2.6-2.483V7.357c0-1.37 1.167-2.484 2.6-2.484h8.255c1.436 0 2.601 1.114 2.601 2.484V9.98zM12.188 0C5.666 0 .358 5.07.358 11.297c0 6.232 5.308 11.3 11.83 11.3 6.524 0 11.832-5.068 11.832-11.3C24.02 5.07 18.712 0 12.188 0z"/>
        <path d="M15.87 11.298c0 1.937-1.65 3.515-3.681 3.515-2.03 0-3.68-1.578-3.68-3.515 0-.466.099-.912.271-1.318H6.771v5.261c0 .681.577 1.23 1.29 1.23h8.255c.712 0 1.289-.549 1.289-1.23V9.98h-2.007c.171.406.272.852.272 1.318"/>
    </g>
</svg>
