<svg xmlns="http://www.w3.org/2000/svg" xmlns:xlink="http://www.w3.org/1999/xlink" width="246" height="99" viewBox="0 0 246 99">
    <defs>
        <path id="a" d="M1.22 1.057h27.878v67.21H1.22z"/>
    </defs>
    <g fill="none" fill-rule="evenodd">
        <path fill="#414042" d="M19.175 60.293c2.002 0 3.902-.352 5.7-1.06 1.796-.707 3.194-1.649 4.197-2.828 1.295-1.001 1.944-2.122 1.944-3.36v-5.302a29.134 29.134 0 0 0-4.595-1.281 24.774 24.774 0 0 0-4.771-.486c-3.064 0-5.568.692-7.512 2.077-1.944 1.384-2.915 3.138-2.915 5.259 0 2.004.764 3.668 2.297 4.993 1.531 1.325 3.416 1.988 5.655 1.988m-3.357 8.662c-2.24 0-4.33-.368-6.275-1.105-1.943-.736-3.623-1.767-5.036-3.094a14.378 14.378 0 0 1-3.314-4.639C.398 58.35 0 56.405 0 54.283c0-2.18.486-4.198 1.458-6.054.972-1.855 2.327-3.432 4.065-4.73 1.736-1.294 3.813-2.31 6.23-3.048 2.414-.735 5.065-1.104 7.952-1.104 2.062 0 4.08.177 6.053.53 1.973.353 3.725.854 5.258 1.503V38.73c0-3.063-.87-5.421-2.606-7.071-1.74-1.649-4.316-2.475-7.733-2.475-2.474 0-4.89.442-7.245 1.325-2.358.884-4.772 2.181-7.246 3.89l-3.623-7.514c5.949-3.946 12.37-5.921 19.263-5.921 6.656 0 11.826 1.636 15.508 4.905 3.681 3.271 5.523 7.999 5.523 14.186V54.46c0 1.237.235 2.121.708 2.652.47.53 1.294.826 2.473.884V68.07c-1.12.235-2.164.397-3.136.487-.973.088-1.812.133-2.52.133-2.239-.06-3.946-.575-5.125-1.548-1.179-.972-1.914-2.283-2.209-3.933l-.264-2.563c-2.063 2.71-4.566 4.773-7.512 6.187-2.946 1.413-6.097 2.121-9.454 2.121M81.737 32.011c-3.594.06-6.804.751-9.633 2.076-2.827 1.327-4.859 3.315-6.097 5.967v28.018h-11.84V21.758h10.868v9.9c1.592-3.182 3.668-5.746 6.23-7.69 2.563-1.944 5.258-2.916 8.085-2.916.649 0 1.134.014 1.46.043.321.03.63.075.927.133v10.783zM121.5 65.685c-1.59.708-3.549 1.414-5.876 2.121a24.96 24.96 0 0 1-7.29 1.06c-1.65 0-3.196-.206-4.64-.618-1.444-.412-2.709-1.074-3.798-1.988-1.092-.913-1.96-2.09-2.608-3.536-.648-1.443-.972-3.196-.972-5.259V30.863h-6.009v-9.104h6.01V6.734h11.84v15.025h9.809v9.104h-9.809v22.625c0 1.65.442 2.814 1.326 3.492.883.677 1.944 1.016 3.181 1.016s2.444-.206 3.623-.619a52.56 52.56 0 0 0 2.827-1.06l2.386 9.368z"/>
        <g transform="translate(127.604 -.74)">
            <mask id="b" fill="#fff">
                <use xlink:href="#a"/>
            </mask>
            <path fill="#414042" d="M8.031 68.267V28.486h-6.81v-1.817h6.81V19.22c0-5.751 1.09-10.218 3.27-13.397 2.179-3.18 5.235-4.769 9.17-4.769 1.756 0 3.42.29 4.995.864 1.574.576 2.783 1.317 3.632 2.225l-1.453 1.09c-.726-.726-1.74-1.317-3.042-1.77a12.184 12.184 0 0 0-4.04-.682c-3.45 0-6.1 1.408-7.946 4.223-1.847 2.816-2.77 6.889-2.77 12.216v7.448h14.076v1.817H9.848v39.781H8.03z" mask="url(#b)"/>
        </g>
        <path fill="#414042" d="M177.134 68.435c-10.111 0-15.165-7.205-15.165-21.617v-26.43h1.816v26.43c0 13.203 4.45 19.801 13.349 19.801 2.239 0 4.45-.409 6.629-1.226a22.404 22.404 0 0 0 5.993-3.36c1.817-1.423 3.406-3.135 4.768-5.132a24.207 24.207 0 0 0 3.133-6.54V20.388h1.816v43.506c0 1.212.484 1.816 1.452 1.816v1.817c-.667 0-1.09-.06-1.27-.181-.607-.243-1.09-.682-1.455-1.318-.363-.635-.543-1.347-.543-2.134v-8.356c-2.06 3.996-4.936 7.146-8.627 9.446-3.694 2.302-7.659 3.451-11.896 3.451M211.549 1.224h1.816v59.31c0 1.756.545 3.148 1.634 4.178 1.09 1.03 2.543 1.544 4.358 1.544.666 0 1.469-.077 2.408-.228.936-.15 1.8-.347 2.587-.59l.636 1.453c-.849.304-1.892.56-3.132.773-1.242.212-2.287.317-3.134.317-2.12 0-3.845-.682-5.175-2.044-1.333-1.361-1.998-3.163-1.998-5.404V1.224zM231.979 1.224h1.816v59.31c0 1.756.545 3.148 1.634 4.178 1.09 1.03 2.543 1.544 4.359 1.544.665 0 1.468-.077 2.407-.228.937-.15 1.8-.347 2.587-.59l.636 1.453c-.849.304-1.892.56-3.132.773-1.242.212-2.287.317-3.134.317-2.12 0-3.845-.682-5.175-2.044-1.333-1.361-1.998-3.163-1.998-5.404V1.224z"/>
        <text fill="#414042" font-family="LetterGothicStd, Letter Gothic Std" font-size="15.15" font-weight="400" letter-spacing=".812" transform="translate(0 -1)">
            <tspan x="0" y="99">ART COLLECTING SIMPLIFIED</tspan>
        </text>
    </g>
</svg>
