<svg xmlns="http://www.w3.org/2000/svg" width="73" height="73" viewBox="0 0 73 73">
    <g fill="none" fill-rule="evenodd" opacity=".9">
        <path fill="#000" d="M30.677 24.353c-.241 0-.457.054-.64.158-.525.3-.826 1.045-.826 2.043v20.165c0 .933.26 1.648.696 1.914.394.24 1.032.163 1.753-.212l18.284-10.76c.616-.408.985-1.007.95-1.608-.036-.61-.486-1.177-1.235-1.552l-17.55-9.683c-.526-.31-1.016-.465-1.432-.465zm-.243 27.332a3.87 3.87 0 0 1-2.041-.562c-1.353-.82-2.097-2.385-2.097-4.404V26.554c0-2.073.835-3.74 2.292-4.573 1.432-.82 3.24-.71 4.962.303l17.466 9.637c1.631.817 2.692 2.308 2.788 3.963.097 1.643-.771 3.233-2.32 4.252L33.07 50.972c-.918.477-1.808.713-2.636.713z"/>
        <path stroke="#000" stroke-width="3.024" d="M70.794 36.397c0 18.997-15.4 34.397-34.397 34.397S2 55.394 2 36.397 17.4 2 36.397 2s34.397 15.4 34.397 34.397z"/>
    </g>
</svg>
