<svg xmlns="http://www.w3.org/2000/svg" xmlns:xlink="http://www.w3.org/1999/xlink" width="73" height="73" viewBox="0 0 73 73">
    <defs>
        <path id="a" d="M0 73h73V0H0z"/>
    </defs>
    <g fill="none" fill-rule="evenodd">
        <path fill="#DAA92C" d="M54.543 29.023a19.483 19.483 0 0 0-6.817-8.502 19.405 19.405 0 0 0-11.225-3.548c-9.436 0-17.515 6.727-19.208 15.993a.778.778 0 1 0 1.53.281c1.56-8.529 8.993-14.718 17.678-14.718 7.185 0 13.74 4.364 16.54 10.935l-1.467.43 3.368 3.213 1.098-4.523-1.497.44z"/>
        <path stroke="#DAA92C" stroke-width=".5" d="M54.543 29.023a19.483 19.483 0 0 0-6.817-8.502 19.405 19.405 0 0 0-11.225-3.548c-9.436 0-17.515 6.727-19.208 15.993a.778.778 0 1 0 1.53.281c1.56-8.529 8.993-14.718 17.678-14.718 7.185 0 13.74 4.364 16.54 10.935l-1.467.43 3.368 3.213 1.098-4.523-1.497.44z"/>
        <path fill="#DAA92C" d="M55.082 39.128a.779.779 0 0 0-.906.625c-.035.195-.074.39-.116.584a.778.778 0 1 0 1.52.33c.046-.21.088-.423.127-.634a.777.777 0 0 0-.625-.905"/>
        <path stroke="#DAA92C" stroke-width=".5" d="M55.082 39.128a.779.779 0 0 0-.906.625c-.035.195-.074.39-.116.584a.778.778 0 1 0 1.52.33c.046-.21.088-.423.127-.634a.777.777 0 0 0-.625-.905z"/>
        <path fill="#DAA92C" d="M54.324 42.384a.778.778 0 0 0-1.002.454C50.698 49.796 43.939 54.47 36.5 54.47c-7.187 0-13.741-4.364-16.542-10.935l1.467-.43-3.368-3.213-1.098 4.523 1.497-.439a19.483 19.483 0 0 0 6.817 8.502 19.406 19.406 0 0 0 11.227 3.549c4.048 0 7.931-1.23 11.23-3.552a19.493 19.493 0 0 0 7.046-9.09.778.778 0 0 0-.453-1.002"/>
        <path stroke="#DAA92C" stroke-width=".5" d="M54.324 42.384a.778.778 0 0 0-1.002.454C50.698 49.796 43.939 54.47 36.5 54.47c-7.187 0-13.741-4.364-16.542-10.935l1.467-.43-3.368-3.213-1.098 4.523 1.497-.439a19.483 19.483 0 0 0 6.817 8.502 19.406 19.406 0 0 0 11.227 3.549c4.048 0 7.931-1.23 11.23-3.552a19.493 19.493 0 0 0 7.046-9.09.778.778 0 0 0-.453-1.002z"/>
        <path fill="#DAA92C" d="M45.244 32.34a.778.778 0 0 0-.778.779V46.51H28.534V33.119a.778.778 0 0 0-.778-.78H26.22l10.28-8.904 10.278 8.905h-1.535zm4.13.19L37.01 21.817a.78.78 0 0 0-1.019 0L23.625 32.53a.776.776 0 0 0-.22.86.776.776 0 0 0 .73.506h2.843v13.392c0 .43.349.778.778.778h17.488c.43 0 .777-.347.777-.778V33.896h2.845a.776.776 0 0 0 .728-.506.776.776 0 0 0-.22-.86z"/>
        <path stroke="#DAA92C" stroke-width=".5" d="M45.244 32.34a.778.778 0 0 0-.778.779V46.51H28.534V33.119a.778.778 0 0 0-.778-.78H26.22l10.28-8.904 10.278 8.905h-1.535zm4.13.19L37.01 21.817a.78.78 0 0 0-1.019 0L23.625 32.53a.776.776 0 0 0-.22.86.776.776 0 0 0 .73.506h2.843v13.392c0 .43.349.778.778.778h17.488c.43 0 .777-.347.777-.778V33.896h2.845a.776.776 0 0 0 .728-.506.776.776 0 0 0-.22-.86z"/>
        <mask id="b" fill="#fff">
            <use xlink:href="#a"/>
        </mask>
        <path fill="#DAA92C" d="M33.45 41.986h6.1v-6.448h-6.1v6.448zm6.878-8.005h-7.656a.778.778 0 0 0-.778.78v8.003c0 .43.349.778.778.778h7.656c.43 0 .778-.348.778-.778V34.76a.777.777 0 0 0-.778-.779z" mask="url(#b)"/>
        <path stroke="#DAA92C" stroke-width=".5" d="M33.45 41.986h6.1v-6.448h-6.1v6.448zm6.878-8.005h-7.656a.778.778 0 0 0-.778.78v8.003c0 .43.349.778.778.778h7.656c.43 0 .778-.348.778-.778V34.76a.777.777 0 0 0-.778-.779z" mask="url(#b)"/>
        <path stroke="#DAA92C" stroke-width="2.2" d="M71.894 36.5c0 19.547-15.847 35.394-35.394 35.394-19.547 0-35.394-15.847-35.394-35.394 0-19.547 15.847-35.394 35.394-35.394 19.547 0 35.394 15.847 35.394 35.394z" mask="url(#b)"/>
    </g>
</svg>
