<svg xmlns="http://www.w3.org/2000/svg" width="23" height="23" viewBox="0 0 23 23">
    <g fill="none" fill-rule="evenodd">
        <path fill="#DAA92C" d="M22.729 11.303c0 6.229-5.087 11.28-11.36 11.28-6.274 0-11.36-5.051-11.36-11.28C.01 5.073 5.096.023 11.37.023c6.273 0 11.36 5.05 11.36 11.28"/>
        <path fill="#FEFEFE" d="M18.327 8.13a5.478 5.478 0 0 1-1.56.425c.561-.335.992-.864 1.195-1.493a5.502 5.502 0 0 1-1.724.655 2.72 2.72 0 0 0-1.983-.852A2.706 2.706 0 0 0 11.54 9.56c0 .211.024.417.07.614A7.722 7.722 0 0 1 6.014 7.36a2.692 2.692 0 0 0 .84 3.6 2.738 2.738 0 0 1-1.23-.338v.033c0 1.306.935 2.396 2.178 2.644a2.765 2.765 0 0 1-1.226.047 2.717 2.717 0 0 0 2.537 1.872 5.468 5.468 0 0 1-4.02 1.116 7.71 7.71 0 0 0 4.161 1.212c4.994 0 7.727-4.109 7.727-7.671 0-.118-.003-.233-.009-.35.532-.38.991-.854 1.355-1.394"/>
    </g>
</svg>
