<svg xmlns="http://www.w3.org/2000/svg" width="23" height="23" viewBox="0 0 23 23">
    <g fill="none" fill-rule="evenodd">
        <path fill="#DAA92C" d="M22.729 11.303c0 6.229-5.087 11.28-11.36 11.28-6.274 0-11.36-5.051-11.36-11.28C.01 5.073 5.096.023 11.37.023c6.273 0 11.36 5.05 11.36 11.28"/>
        <path fill="#FFF" fill-rule="nonzero" d="M15.65 14.24h-.79l.004-.446c0-.198.167-.36.372-.36h.05c.206 0 .374.162.374.36l-.01.447zm-2.964-.956c-.2 0-.364.131-.364.292v2.17c0 .16.164.29.364.29.201 0 .365-.13.365-.29v-2.17c0-.16-.164-.292-.365-.292zM17.5 12.07v4.13c0 .99-.883 1.8-1.964 1.8H7.464c-1.08 0-1.964-.81-1.964-1.8v-4.13c0-.99.883-1.801 1.964-1.801h8.073c1.08 0 1.963.81 1.963 1.801zm-9.498 4.578v-4.35h1v-.644l-2.668-.004v.633l.833.003v4.361h.835zm3-3.702h-.835v2.323c0 .336.021.504 0 .563-.069.18-.374.371-.493.02-.02-.062-.002-.248-.002-.568l-.004-2.338h-.83l.003 2.301c0 .353-.008.616.003.736.02.211.013.458.215.598.375.263 1.094-.04 1.274-.415l-.001.48h.67v-3.7zm2.669 2.66l-.002-1.934c0-.736-.567-1.178-1.337-.582l.004-1.437-.834.001-.004 4.961.685-.01.063-.309c.876.782 1.427.247 1.425-.69zm2.612-.256l-.626.003-.002.082v.34c0 .181-.154.33-.342.33h-.122a.337.337 0 0 1-.342-.33v-.893h1.432v-.525c0-.383-.01-.766-.042-.985-.103-.693-1.103-.803-1.609-.448a.92.92 0 0 0-.35.459c-.071.199-.106.47-.106.817v1.152c0 1.916 2.394 1.646 2.109-.002zm-3.21-6.258c.043.101.11.184.201.246.09.061.204.092.341.092a.54.54 0 0 0 .32-.097.745.745 0 0 0 .234-.29l-.016.318h.93V5.515h-.732v2.993a.301.301 0 0 1-.305.294.301.301 0 0 1-.305-.294V5.515h-.764v2.594c0 .33.006.55.016.662.011.111.037.218.08.32zM10.255 6.92c0-.37.032-.658.094-.865a.963.963 0 0 1 .342-.5c.165-.126.375-.189.63-.189.216 0 .4.041.555.122.154.08.274.185.356.315.085.13.142.264.172.4.032.14.047.349.047.63v.973c0 .357-.015.62-.043.786a1.22 1.22 0 0 1-.183.467.86.86 0 0 1-.359.32c-.146.07-.314.103-.504.103-.212 0-.39-.028-.538-.088a.734.734 0 0 1-.342-.267 1.155 1.155 0 0 1-.175-.43 4.026 4.026 0 0 1-.052-.76V6.92zm.728 1.527c0 .218.167.396.37.396.203 0 .369-.178.369-.396V6.4c0-.217-.166-.395-.369-.395-.203 0-.37.177-.37.395v2.047zM8.409 9.481h.878v-2.95l1.037-2.526h-.96l-.55 1.877L8.253 4h-.95l1.104 2.533.001 2.948z"/>
    </g>
</svg>
