<svg xmlns="http://www.w3.org/2000/svg" width="24" height="25" viewBox="0 0 24 25">
    <g fill="#B6B6B5" fill-rule="evenodd" stroke="#B6B6B5" stroke-width=".5">
        <path d="M13.092 9.427h-2.655V6.774a.444.444 0 0 0-.887 0v2.653H6.897a.442.442 0 1 0 0 .884H9.55v2.652a.443.443 0 0 0 .887 0v-2.652h2.655a.443.443 0 0 0 0-.884"/>
        <path d="M1.586 9.87c0-4.633 3.77-8.4 8.407-8.4 4.637 0 8.407 3.767 8.407 8.4 0 4.63-3.77 8.398-8.407 8.398-4.637 0-8.407-3.769-8.407-8.399m21.56 13.384l-6.576-6.832a9.253 9.253 0 0 0 2.717-6.552c0-5.12-4.169-9.285-9.294-9.285C4.87.584.7 4.75.7 9.87c0 5.118 4.17 9.285 9.293 9.285a9.263 9.263 0 0 0 5.923-2.137l6.592 6.849a.433.433 0 0 0 .318.134.44.44 0 0 0 .32-.747"/>
    </g>
</svg>
